<svg xmlns="http://www.w3.org/2000/svg" viewBox="0 0 100 100"><g fill="none" stroke="currentColor" stroke-linecap="round" stroke-miterlimit="10"><path stroke-width="2.2" d="M81.2 21.9V52h-1.4a14.7 14.7 0 0 0-14.7 15.2H8.8A3 3 0 0 1 5.5 64V21.9c0-1.8 1.5-3.3 3.3-3.3h69c1.9 0 3.3 1.5 3.3 3.3Z"/><path stroke-width="3.7" d="M94.5 66.7a14.7 14.7 0 0 1-29.4.6v-.6a14.7 14.7 0 1 1 29.4 0ZM79.8 58.2v17M88.3 66.7h-17"/></g><path fill="none" stroke="currentColor" stroke-linecap="round" stroke-miterlimit="10" stroke-width="2" d="M41.5 25.6a5 5 0 0 0-2.5-2.2 5 5 0 0 0-3-.1c-3.8.6-5.7 1-7.3 1.6-3 1.1-5.4 2-8 4.4-2 2-3 4-3.7 5.2-.5 1-2.2 4.2-2.4 8-.3 7.3 5.2 12.2 12.3 18.7a6 6 0 0 0 3.5 1.8c1 0 1.7-.2 4.3-1 2.1-.8 2.4-1 3.3-1.1q2.5-.5 3.8-.4"/><path fill="currentColor" d="M41.4 37.7a9 9 0 0 1-6.8-3.8l1.2.5-3.3.7q-3.3.8-6.2 2.5c-4.5 3.6-4.8 11-.7 15a11 11 0 0 1-3.5-6c-.5-3.6.5-7.7 3.3-10.2 2.8-2.2 6.5-3.4 10-4.4l.6-.2c1.2 1.8 3.3 3 5.4 2.8 2 0 2.1 3 0 3Z"/><path fill="none" stroke="currentColor" stroke-linecap="round" stroke-miterlimit="10" stroke-width="2" d="M41.7 25.6q.5-1.2 2.6-2.2 1.7-.5 3-.1c3.7.6 5.6 1 7.3 1.6 2.9 1.1 5.4 2 7.8 4.4q3 3.2 3.8 5.2c.6 1 2.2 4.2 2.4 8 .3 7.3-5.1 12.2-12.3 18.7a6 6 0 0 1-3.5 1.8c-1 0-1.7-.2-4.2-1-2.2-.8-2.5-1-3.4-1.1a15 15 0 0 0-3.8-.4"/><path fill="currentColor" d="M41.8 34.7c2.1.2 4.2-1.1 5.4-2.9l.7.2c3.4 1 7 2.2 10 4.4 4.5 4.2 4.5 12.3-.3 16.3C61 49.3 61.3 44 59 40c-1-2-3-3-5-3.9-1.8-.8-4.7-1.3-6.6-1.7l1.2-.5a8 8 0 0 1-6.9 3.8c-2 0-2-3.1.1-3Z"/></svg>